<?xml version="1.0"?>
<svg version="1.1" xmlns="http://www.w3.org/2000/svg" width="153" height="127" style="border: dashed 2px #aaa"><path fill="#f7d31e" d="M16.150390625,65.6337890625l0-1.4287109375l0-1.4658203125q0.0185546875-1.484375,0.12060546875-2.84814453125t0.28759765625-2.27294921875q0.111328125-0.5009765625,0.66796875-0.6123046875t0.96484375-0.111328125q0.7607421875,0,1.12255859375,0.185546875t0.47314453125,0.52880859375t0.0927734375,0.81640625t-0.0185546875,1.08544921875q0,0.8720703125-0.037109375,2.4306640625t-0.0556640625,3.451171875l0,0.9462890625q0,1.4287109375,0.037109375,2.9501953125q0.0556640625,2.041015625,0.21337890625,3.90576171875t0.43603515625,3.3583984375t0.779296875,2.29150390625q0.7978515625-0.7236328125,1.595703125-2.03173828125t1.521484375-2.94091796875t1.38232421875-3.44189453125t1.19677734375-3.53466796875t0.91845703125-3.2470703125t0.56591796875-2.5791015625q0.296875-1.521484375,0.39892578125-3.0986328125t0.10205078125-3.5068359375q0.5751953125-0.6865234375,0.890625-0.86279296875t1.001953125-0.17626953125q0.333984375,0,0.67724609375,0.0556640625t0.65869140625,0.259765625l0.259765625,0.408203125l0,0.4638671875q0,3.376953125-0.32470703125,6.85595703125t-0.6865234375,6.9951171875t-0.6865234375,7.05078125t-0.32470703125,7.02294921875q0,0.5380859375,0.04638671875,1.14111328125t0.19482421875,1.14111328125l-0.07421875,0.22265625q-0.259765625,0.4267578125-0.853515625,0.5380859375t-1.0205078125,0.111328125q-0.9091796875,0-1.36376953125-0.26904296875t-0.60302734375-0.7421875t-0.1298828125-1.0947265625t0.0185546875-1.34521484375q0-2.5048828125,0.22265625-5.09326171875t0.5380859375-5.09326171875q-0.296875,0.8720703125-0.705078125,2.10595703125t-0.95556640625,2.4677734375t-1.27099609375,2.263671875t-1.595703125,1.47509765625l0.037109375-0.037109375l-0.1484375,0.07421875l0.037109375,0q-0.5380859375,0.296875-0.99267578125,0.39892578125t-1.06689453125,0.10205078125q-1.224609375,0-2.03173828125-0.7236328125t-1.30810546875-1.86474609375t-0.7421875-2.560546875t-0.34326171875-2.84814453125t-0.10205078125-2.71826171875l0-2.12451171875q0-1.0205078125-0.0185546875-2.4306640625z M22.755859375,80.4033203125q0.037109375,0,0.037109375-0.037109375l0.037109375,0q-0.037109375,0.037109375-0.07421875,0.037109375z M33.075419921875,95.42333984375q0.06494140625-0.26904296875,0.26904296875-0.41748046875t0.66796875-0.1484375q0.5009765625,0,0.9462890625,0.296875t0.6494140625,0.7236328125q0.6494140625-1.0205078125,1.0205078125-2.375t0.56591796875-2.8203125t0.23193359375-2.88525390625t0.037109375-2.60693359375q0-3.7294921875,0.0927734375-7.3291015625t0.296875-7.3291015625q0-0.259765625,0.22265625-0.43603515625t0.51025390625-0.26904296875t0.59375-0.1298828125t0.52880859375-0.037109375q0.4267578125,0,0.8349609375,0.111328125t0.7607421875,0.333984375l0.22265625,0.4267578125q-0.037109375,2.6533203125-0.1484375,5.29736328125t-0.111328125,5.26025390625q0,1.0205078125,0.037109375,2.671875q0.0185546875,0.5380859375,0.0185546875,1.11328125q0,1.150390625-0.0556640625,2.412109375q-0.07421875,1.892578125-0.32470703125,3.81298828125t-0.81640625,3.47900390625t-1.5400390625,2.55126953125t-2.45849609375,0.99267578125q-0.6494140625,0-1.21533203125-0.15771484375t-1.01123046875-0.60302734375q-0.4267578125-0.37109375-0.6123046875-0.7978515625q-0.111328125-0.259765625-0.19482421875-0.56591796875t-0.0185546875-0.5751953125z M38.335673828125,65.7451171875l0-1.14111328125t0.1298828125-1.001953125t0.49169921875-0.705078125t1.04833984375-0.26904296875q0.259765625,0,0.52880859375,0.037109375t0.51025390625,0.1484375l0.408203125,0.4638671875q0,0.5380859375,0.0185546875,1.1875l0,0.1484375q0,0.556640625-0.111328125,1.0390625q-0.1298828125,0.5751953125-0.47314453125,0.97412109375t-1.06689453125,0.39892578125q-0.5751953125,0-0.8720703125-0.1669921875t-0.5751953125-0.705078125z M42.198203125,95.42333984375q0.06494140625-0.26904296875,0.26904296875-0.41748046875t0.66796875-0.1484375q0.5009765625,0,0.9462890625,0.296875t0.6494140625,0.7236328125q0.6494140625-1.0205078125,1.0205078125-2.375t0.56591796875-2.8203125t0.23193359375-2.88525390625t0.037109375-2.60693359375q0-3.7294921875,0.0927734375-7.3291015625t0.296875-7.3291015625q0-0.259765625,0.22265625-0.43603515625t0.51025390625-0.26904296875t0.59375-0.1298828125t0.52880859375-0.037109375q0.4267578125,0,0.8349609375,0.111328125t0.7607421875,0.333984375l0.22265625,0.4267578125q-0.037109375,2.6533203125-0.1484375,5.29736328125t-0.111328125,5.26025390625q0,1.0205078125,0.037109375,2.671875q0.0185546875,0.5380859375,0.0185546875,1.11328125q0,1.150390625-0.0556640625,2.412109375q-0.07421875,1.892578125-0.32470703125,3.81298828125t-0.81640625,3.47900390625t-1.5400390625,2.55126953125t-2.45849609375,0.99267578125q-0.6494140625,0-1.21533203125-0.15771484375t-1.01123046875-0.60302734375q-0.4267578125-0.37109375-0.6123046875-0.7978515625q-0.111328125-0.259765625-0.19482421875-0.56591796875t-0.0185546875-0.5751953125z M47.45845703125,65.7451171875l0-1.14111328125t0.1298828125-1.001953125t0.49169921875-0.705078125t1.04833984375-0.26904296875q0.259765625,0,0.52880859375,0.037109375t0.51025390625,0.1484375l0.408203125,0.4638671875q0,0.5380859375,0.0185546875,1.1875l0,0.1484375q0,0.556640625-0.111328125,1.0390625q-0.1298828125,0.5751953125-0.47314453125,0.97412109375t-1.06689453125,0.39892578125q-0.5751953125,0-0.8720703125-0.1669921875t-0.5751953125-0.705078125z M54.447451171875,75.5791015625q0-1.26171875,0.34326171875-2.4306640625t1.02978515625-2.08740234375t1.71630859375-1.4658203125t2.38427734375-0.54736328125q0.8349609375,0,1.84619140625,0.25048828125t1.90185546875,0.7421875t1.484375,1.25244140625t0.59375,1.744140625q0,0.4638671875-0.15771484375,0.705078125t-0.64013671875,0.2412109375l-0.2041015625-0.037109375q0.5380859375,1.447265625,0.927734375,2.96875t0.7607421875,3.04296875q0.1484375,0.296875,0.22265625,0.52880859375t0.07421875,0.45458984375q0,0.296875-0.1669921875,0.49169921875t-0.43603515625,0.28759765625t-0.556640625,0.1298828125t-0.51025390625,0.037109375q-0.7978515625,0-1.19677734375-0.2783203125t-0.5751953125-0.7607421875t-0.21337890625-1.08544921875t-0.1484375-1.21533203125q-0.22265625,0.7236328125-0.58447265625,1.41015625t-0.853515625,1.23388671875t-1.15966796875,0.8720703125t-1.5029296875,0.32470703125q-1.224609375,0-2.0595703125-0.705078125t-1.34521484375-1.73486328125t-0.7421875-2.19873046875t-0.23193359375-2.1708984375z M57.082216796875,75.3193359375q0,0.6865234375,0.0927734375,1.447265625t0.30615234375,1.5029296875t0.54736328125,1.40087890625t0.8349609375,1.15966796875q0.9091796875-0.9833984375,1.34521484375-2.3935546875t0.779296875-2.71826171875t0.779296875-2.2451171875t1.34521484375-0.93701171875q0.5751953125,0,0.96484375,0.2041015625q-0.185546875-0.4638671875-0.6123046875-0.89990234375t-0.95556640625-0.7978515625t-1.0947265625-0.59375t-1.06689453125-0.23193359375q-0.1484375,0-0.34326171875,0.04638671875t-0.30615234375,0.00927734375q-0.7607421875,0.22265625-1.25244140625,0.77001953125t-0.7978515625,1.28955078125t-0.43603515625,1.521484375t-0.1298828125,1.4658203125z M70.5282421875,82.166015625q0-0.5380859375,0.04638671875-1.1318359375t0.08349609375-1.11328125l0.111328125-2.783203125q0.185546875-3.33984375,0.45458984375-6.568359375t0.45458984375-6.53125q0.111328125-1.818359375,0.1669921875-3.57177734375t0.1669921875-3.57177734375q-0.07421875-0.1484375-0.07421875-0.2041015625q0-0.259765625,0.19482421875-0.408203125t0.45458984375-0.25048828125t0.54736328125-0.13916015625t0.43603515625-0.037109375l0.4267578125,0q0.5751953125,0.07421875,0.8349609375,0.36181640625t0.333984375,0.6865234375t0.037109375,0.853515625t-0.037109375,0.84423828125q0,2.6904296875-0.1298828125,5.48291015625t-0.296875,5.603515625t-0.30615234375,5.6220703125t-0.13916015625,5.55712890625l0,1.298828125q0,0.8720703125-0.49169921875,1.150390625t-1.36376953125,0.2783203125q-0.7607421875,0-1.3359375-0.333984375t-0.5751953125-1.0947265625z M86.26892578125,57.080078125q0-0.8720703125,0.21337890625-1.27099609375t0.6123046875-0.556640625t0.96484375-0.12060546875t1.32666015625,0.037109375q1.9296875,0,3.896484375,0.59375t3.5439453125,1.73486328125t2.5419921875,2.81103515625t0.96484375,3.8408203125q0,1.447265625-0.41748046875,2.73681640625t-1.17822265625,2.412109375t-1.78125,2.05029296875t-2.2451171875,1.6142578125q0.5009765625,0.5009765625,1.298828125,1.77197265625t1.5771484375,2.708984375t1.38232421875,2.79248046875t0.71435546875,2.041015625l-0.22265625,0.333984375q-0.5009765625,0.296875-1.2060546875,0.3154296875q-0.333984375,0-0.8720703125-0.08349609375t-0.6865234375-0.49169921875q-0.7607421875-2.1337890625-1.66064453125-4.3974609375t-2.21728515625-4.08203125l0-0.037109375q-0.4638671875,0.185546875-0.91845703125,0.36181640625t-0.91845703125,0.32470703125q0.1484375,2.0595703125,0.30615234375,4.05419921875t0.15771484375,4.03564453125q0,0.259765625-0.25048828125,0.41748046875t-0.56591796875,0.25048828125t-0.64013671875,0.1298828125t-0.52880859375,0.037109375q-0.185546875,0-0.52880859375-0.037109375t-0.65869140625-0.1298828125t-0.54736328125-0.26904296875t-0.23193359375-0.47314453125q0-2.0595703125-0.0927734375-4.10986328125t-0.2041015625-4.09130859375q-0.5751953125-0.37109375-0.5751953125-0.96484375q0-0.4638671875,0.4453125-0.630859375q-0.22265625-3.9150390625-0.51025390625-7.8115234375t-0.28759765625-7.8486328125z M89.62732421875,56.5048828125q0.259765625,4.0263671875,0.58447265625,7.9599609375t0.62158203125,7.9599609375q1.298828125-0.37109375,2.42138671875-1.28955078125t1.93896484375-2.06884765625t1.27099609375-2.5048828125t0.45458984375-2.6904296875q0-1.484375-0.59375-2.84814453125t-1.5771484375-2.38427734375q-1.001953125-1.0205078125-2.30078125-1.595703125q-1.150390625-0.5009765625-2.412109375-0.5009765625l-0.333984375,0z M103.75987304688,75.931640625q0-1.0576171875,0.26904296875-2.18017578125t0.853515625-2.0224609375t1.47509765625-1.4658203125t2.15234375-0.56591796875q0.9462890625,0,1.99462890625,0.32470703125t1.92041015625,0.927734375t1.41943359375,1.47509765625t0.54736328125,1.9482421875q0,1.298828125-0.47314453125,2.4677734375t-1.32666015625,2.08740234375t-1.99462890625,1.447265625t-2.47705078125,0.52880859375q-1.0947265625,0-1.9111328125-0.39892578125t-1.36376953125-1.06689453125t-0.81640625-1.5771484375t-0.26904296875-1.9296875z M106.48741210938,75.89453125q0,0.333984375,0.10205078125,0.9833984375t0.30615234375,1.27099609375t0.52880859375,1.076171875t0.78857421875,0.41748046875q0.9833984375-0.111328125,1.62353515625-0.64013671875t1.0390625-1.28955078125t0.556640625-1.6513671875t0.15771484375-1.6884765625q0-1.0205078125-0.39892578125-1.70703125t-1.30810546875-1.11328125q0,0.037109375,0.037109375,0.037109375t0.037109375-0.037109375l-0.4638671875-0.111328125q-0.185546875-0.07421875-0.45458984375-0.1669921875t-0.52880859375-0.408203125q-0.7236328125,0.259765625-1.12255859375,0.66796875t-0.60302734375,0.99267578125t-0.25048828125,1.40087890625t-0.04638671875,1.966796875z M117.818203125,71.44140625q0-0.5380859375,0.30615234375-0.705078125t0.77001953125-0.1669921875q0.7607421875,0,1.15966796875,0.28759765625t0.39892578125,1.01123046875q0,0.8720703125,0.1298828125,2.18017578125t0.38037109375,2.5419921875t0.59375,2.12451171875t0.71435546875,0.890625q0.6865234375,0,1.21533203125-1.0576171875t0.927734375-2.59765625t0.6865234375-3.31201171875t0.39892578125-3.16357421875q0.07421875-0.7607421875,0.36181640625-1.10400390625t1.04833984375-0.34326171875q0.8720703125,0,1.27099609375,0.7236328125t0.51025390625,1.78125q0.0927734375,0.9091796875,0.0927734375,1.892578125l0,0.3154296875l0,0.7421875q0,0.705078125,0.0185546875,1.26171875l0.5380859375,11.3740234375l0.07421875,1.892578125q0.037109375,0.259765625,0.0556640625,0.49169921875t0.0185546875,0.49169921875q0,1.0576171875-0.45458984375,1.36376953125t-1.47509765625,0.30615234375q-0.22265625,0-0.56591796875-0.037109375t-0.66796875-0.1484375t-0.556640625-0.30615234375t-0.23193359375-0.49169921875l0.07421875-0.185546875q0.0927734375-1.11328125,0.0927734375-2.337890625l0-0.3896484375q-0.0185546875-1.447265625-0.0927734375-2.931640625t-0.1669921875-2.96875t-0.0927734375-2.857421875q-0.259765625,0.5751953125-0.60302734375,1.1875t-0.7978515625,1.10400390625t-1.02978515625,0.81640625t-1.298828125,0.32470703125q-1.0576171875,0-1.744140625-0.556640625t-1.06689453125-1.447265625t-0.54736328125-1.99462890625t-0.22265625-2.2080078125t-0.07421875-2.10595703125t-0.1484375-1.6884765625z"/><path fill="#" d=""/></svg>
